# xmcd CD database file generated by Grip 2.94
# 
# Track frame offsets:
#       182
#       12005
#       31072
#       49530
#       61217
#       73835
#       91875
#       105135
#       116877
#       131005
# 
# Disc length: 2011 seconds
# 
# Revision: 3
# Processed by: cddbd v1.4b41PL1 Copyright (c) Steve Scherf et al.
# Submitted via: Grip 2.94
# 
DISCID=7707d90a
DTITLE=Karen Tobin - Carolina Smokey Moon
DYEAR=1900
DGENRE=
TTITLE0=Holdin' Out For You
TTITLE1=Carolina Smokey Moon
TTITLE2=My Sweet Love Ain't Around
TTITLE3=Anywhere But Here
TTITLE4=The Passing Of The Train
TTITLE5=Picture Of Your Daddy
TTITLE6=Love From A Heart Of Stone
TTITLE7=I Know This Love By Heart
TTITLE8=Wedding Bed
TTITLE9=Stars Above
EXTD=
EXTT0=
EXTT1=
EXTT2=
EXTT3=
EXTT4=
EXTT5=
EXTT6=
EXTT7=
EXTT8=
EXTT9=
PLAYORDER=
